<svg width="18" height="15" viewBox="0 0 18 15" fill="none" xmlns="http://www.w3.org/2000/svg">
<path d="M2.62508 9.18751L12.5172 9.18751L9.77333 11.9314C9.45676 12.2478 9.27885 12.677 9.27875 13.1246C9.27864 13.5722 9.45635 14.0015 9.77277 14.3181C10.0892 14.6346 10.5184 14.8125 10.966 14.8127C11.4136 14.8128 11.8429 14.6351 12.1595 14.3186L16.1937 10.2844C16.9308 9.54522 17.3448 8.54391 17.3448 7.50001C17.3448 6.45611 16.9308 5.4548 16.1937 4.71563L12.1595 0.681385C11.8429 0.364965 11.4136 0.187261 10.966 0.187367C10.5184 0.187472 10.0892 0.36538 9.77276 0.681949C9.45635 0.998518 9.27864 1.42782 9.27875 1.87541C9.27885 2.323 9.45676 2.75222 9.77333 3.06864L12.5172 5.81251L2.62508 5.81251C2.17752 5.81251 1.7483 5.9903 1.43184 6.30677C1.11537 6.62324 0.937578 7.05246 0.937578 7.50001C0.937578 7.94756 1.11537 8.37679 1.43184 8.69325C1.7483 9.00972 2.17752 9.18751 2.62508 9.18751Z" fill="#374957"/>
</svg>
